# xmcd
#
# Track frame offsets: 
#        150
#        18150
#        32852
#        49877
#        64705
#        95557
#        111267
#        126182
#        144035
#        160085
#        183742
#        198460
#
# Disc length: 2911 seconds
#
# Revision: 2
# Processed by: cddbd v1.5.2PL0 Copyright (c) Steve Scherf et al.
# Submitted via: ExactAudioCopy v0.99pb4
#
DISCID=a40b5d0c
DTITLE=Tab Benoit - What I Live For
DYEAR=1900
DGENRE=Blues
TTITLE0=Blues Come Walkin' In
TTITLE1=Who's Been Talkin'
TTITLE2=Cross The Line
TTITLE3=Time And Time Again
TTITLE4=Cherry Tree Blues
TTITLE5=Somehow
TTITLE6=She's My Number One
TTITLE7=Too Many Drivers At the Wheel
TTITLE8=Night Life
TTITLE9=Don't Cut Off Your Hair
TTITLE10=Wide Open
TTITLE11=What I Live For
EXTD=
EXTT0=
EXTT1=
EXTT2=
EXTT3=
EXTT4=
EXTT5=
EXTT6=
EXTT7=
EXTT8=
EXTT9=
EXTT10=
EXTT11=
PLAYORDER=
